<svg width="18" height="18" viewBox="0 0 18 18" fill="none" xmlns="http://www.w3.org/2000/svg">
<path d="M16.8938 15.5142L16.8939 15.5141L16.8888 15.509L13.998 12.6482C16.2226 9.76945 15.9781 5.60132 13.37 2.99702C11.9824 1.61145 10.1581 0.85 8.19845 0.85C6.23935 0.85 4.38822 1.61103 3.00022 2.99702C1.61243 4.3828 0.85 6.20464 0.85 8.18802C0.85 10.1714 1.61243 11.9932 3.00022 13.379L3.00128 13.3801C4.38769 14.7373 6.21115 15.526 8.19845 15.526C9.81312 15.526 11.4022 14.9863 12.6659 14.0058L15.5309 16.8665C15.7171 17.0525 15.9411 17.15 16.1967 17.15C16.4417 17.15 16.6992 17.0594 16.8673 16.8618C17.2405 16.4842 17.2389 15.8902 16.8938 15.5142ZM13.6472 8.18802C13.6472 9.63905 13.0766 11.0111 12.0396 12.0206C10.9988 13.034 9.64913 13.6287 8.19845 13.6287C6.74512 13.6287 5.37101 13.0588 4.35996 12.0233C3.34513 10.984 2.74966 9.63639 2.74966 8.18802C2.74966 6.73699 3.32031 5.36497 4.35727 4.3554C5.39841 3.34176 6.72149 2.74734 8.19845 2.74734C9.65179 2.74734 11.0259 3.31724 12.0369 4.35271C13.0521 5.39234 13.6472 6.7134 13.6472 8.18802Z" fill="#818183" stroke="#818183" stroke-width="0.3"/>
</svg>
