<svg width="18" height="18" viewBox="0 0 18 18" fill="none" xmlns="http://www.w3.org/2000/svg">
<path d="M0.85 17V17.15H1H2.25H2.4V17C2.4 13.3609 5.36087 10.4 9 10.4C12.6391 10.4 15.6 13.3609 15.6 17V17.15H15.75H17H17.15V17C17.15 14.8233 16.302 12.7762 14.7629 11.2371L14.6569 11.3431L14.7629 11.2371C13.9442 10.4183 12.9813 9.79546 11.9315 9.39147C13.0523 8.51727 13.775 7.15419 13.775 5.625C13.775 2.99194 11.6331 0.85 9 0.85C6.36694 0.85 4.225 2.99194 4.225 5.625C4.225 7.15419 4.94772 8.51727 6.06851 9.39147C5.01871 9.79547 4.05585 10.4183 3.23709 11.2371L3.34316 11.3431L3.23709 11.2371C1.69796 12.7762 0.85 14.8233 0.85 17ZM9 8.85C7.22187 8.85 5.775 7.40316 5.775 5.625C5.775 3.84684 7.22187 2.4 9 2.4C10.7781 2.4 12.225 3.84684 12.225 5.625C12.225 7.40316 10.7781 8.85 9 8.85Z" fill="#818183" stroke="#818183" stroke-width="0.3"/>
</svg>
